<svg height="20" viewBox="0 0 20 20" width="20" xmlns="http://www.w3.org/2000/svg"><path d="m10 0c5.5228475 0 10 4.4771525 10 10s-4.4771525 10-10 10-10-4.4771525-10-10 4.4771525-10 10-10zm0 1.39534884c-4.75221761 0-8.60465116 3.85243355-8.60465116 8.60465116 0 4.7522176 3.85243355 8.6046512 8.60465116 8.6046512 4.7522176 0 8.6046512-3.8524336 8.6046512-8.6046512 0-4.75221761-3.8524336-8.60465116-8.6046512-8.60465116zm4.9217059 5.18724251c.2806538.25105623.3046473.68209234.0535911.9627461l-4.9091304 5.48787785c-.26709337.2985816-.73282286.3036417-1.00634052.0109338l-3.34074753-3.57513718c-.25709478-.27513276-.2424721-.70658844.03266066-.96368322.27513277-.25709478.70658844-.24247211.96368322.03266066l2.8315979 3.03026514 4.41193947-4.93207207c.2510562-.28065377.6820923-.30464731.9627461-.05359108z" fill="#e7a03c"/></svg>