<svg fill="none" height="24" viewBox="0 0 24 24" width="24" xmlns="http://www.w3.org/2000/svg"><path clip-rule="evenodd" d="m1 11c0 2.2091 1.79086 4 4 4h-.17974l1.05542 5.009c.28045 1.331 1.77904 1.9998 2.95703 1.3196l2.16729-1.2512c.6188-.3573 1-1.0176 1-1.7321v-2.5401c1.4117.4776 2.7542 1.1621 3.9815 2.0387l2.6235 1.874c.2569.1835.5647.2821.8804.2821.8365 0 1.5146-.6781 1.5146-1.5146v-14.97078c0-.8365-.6781-1.51462-1.5146-1.51462-.3157 0-.6235.09864-.8804.28212l-2.6235 1.87398c-2.5895 1.84961-5.6921 2.8439-8.87433 2.8439h-2.10717c-2.20914 0-4 1.79086-4 4zm16.4346-4.80957 1.0654-.76103v11.1412l-1.0654-.761c-3.0135-2.1525-6.6242-3.3096-10.32743-3.3096h-2.10717c-.82843 0-1.5-.6716-1.5-1.5s.67157-1.5 1.5-1.5h2.10717c3.70323 0 7.31393-1.1571 10.32743-3.30957zm-7.93458 8.99827c-.7002-.1112-1.40996-.1738-2.12436-.1863l.80415 3.8164 1.32021-.7622z" fill="#e7a03c" fill-rule="evenodd"/></svg>