<svg height="20" viewBox="0 0 20 20" width="20" xmlns="http://www.w3.org/2000/svg"><path d="m7.172 11.334 2.8296129 1.9347863 2.7283871-1.8817863 6.114647 6.0331015c-.1611191.0518785-.3329442.0798985-.5113137.0798985h-16.66666663c-.2201052 0-.43024508-.0426666-.62260009-.1201801zm12.828-4.958v9.4573333c0 .2465983-.0535559.4806879-.1496709.6912721l-5.9943291-5.9136054zm-20 .053 6.042 4.132-5.93629958 5.8577119c-.06833038-.1821248-.10570042-.3793876-.10570042-.5853786zm18.3333333-3.929c.9204746 0 1.6666667.74619208 1.6666667 1.66666667v.58633333l-10.00161291 6.8946481-9.99838709-6.8376481v-.64333333c0-.92047459.74619208-1.66666667 1.66666667-1.66666667z" fill="#e7a03c" fill-rule="evenodd"/></svg>